<svg width="192" height="192" viewBox="0 0 192 192" fill="none" xmlns="http://www.w3.org/2000/svg">
<rect width="192" height="192" fill="#2E2832"/>
<path d="M121.326 81.377H127.447C128.782 81.377 129.866 80.2849 129.866 78.9394C129.866 78.3836 129.673 77.8766 129.363 77.4671C130.703 75.8583 131.656 73.8546 132.068 71.6267H134.71C136.045 71.6267 137.129 70.5346 137.129 69.1891C137.129 67.8436 136.045 66.7515 134.71 66.7515H132.068C131.052 61.1939 126.624 57.0012 121.331 57.0012H104.753L107.84 50.7805C108.213 50.0249 108.174 49.1278 107.734 48.4112C107.294 47.6946 106.515 47.2558 105.677 47.2558H96V20.4376C96 19.092 94.9161 18 93.5806 18C92.2452 18 91.1613 19.092 91.1613 20.4376V47.2509H81.4839C80.6468 47.2509 79.8677 47.6897 79.4274 48.4063C78.9871 49.123 78.9484 50.02 79.321 50.7757L82.4081 56.9963H65.8306C60.5371 56.9963 56.1097 61.189 55.0935 66.7466H52.4516C51.1161 66.7466 50.0323 67.8387 50.0323 69.1842C50.0323 70.5298 51.1161 71.6218 52.4516 71.6218H55.0935C55.5 73.8497 56.4581 75.8534 57.7984 77.4622C57.4887 77.8717 57.2952 78.3788 57.2952 78.9345C57.2952 80.2801 58.379 81.3721 59.7145 81.3721H75.7984C77.9274 89.3869 79.4613 97.5381 80.4 105.748H79.0694C77.7339 105.748 76.65 106.84 76.65 108.185C76.65 109.531 77.7339 110.623 79.0694 110.623H80.8839C82.1274 125.244 81.4839 140.01 78.9484 154.514C77.671 154.582 76.65 155.635 76.65 156.937C76.65 157.922 77.2306 158.765 78.0677 159.15C77.6032 161.422 77.1 163.684 76.5435 165.937L75.3 170.973C74.9758 172.279 75.7694 173.6 77.0661 173.927C77.2645 173.976 77.4581 174 77.6516 174C78.7355 174 79.7226 173.259 79.9984 172.152L81.2419 167.116C81.8758 164.547 82.4468 161.968 82.9645 159.375H91.171V171.562C91.171 172.908 92.2548 174 93.5903 174C94.9258 174 96.0097 172.908 96.0097 171.562V159.375H104.216C104.734 161.963 105.305 164.547 105.939 167.116L107.182 172.152C107.458 173.259 108.445 174 109.529 174C109.723 174 109.921 173.976 110.115 173.927C111.411 173.6 112.2 172.279 111.881 170.973L110.637 165.937C110.081 163.684 109.577 161.417 109.113 159.15C109.945 158.765 110.531 157.922 110.531 156.937C110.531 155.635 109.51 154.577 108.232 154.514C105.697 140.015 105.053 125.244 106.297 110.623H108.111C109.447 110.623 110.531 109.531 110.531 108.185C110.531 106.84 109.447 105.748 108.111 105.748H106.781C107.715 97.5381 109.248 89.3869 111.382 81.3721H121.35L121.326 81.377ZM93.5758 52.1261H101.758L99.3387 57.0012H87.8129L85.3935 52.1261H93.5758ZM65.8258 61.8764H121.331C123.987 61.8764 126.252 63.9142 127.094 66.7515H60.0629C60.9048 63.9142 63.1694 61.8764 65.8258 61.8764ZM60.0629 71.6267H127.089C126.247 74.464 123.982 76.5018 121.326 76.5018H65.8258C63.1694 76.5018 60.9048 74.464 60.0629 71.6267ZM83.85 154.504C86.3129 140.001 86.9371 125.244 85.7323 110.628H91.1613V154.504H83.8548H83.85ZM103.306 154.504H96V110.628H101.429C100.224 125.244 100.848 140.001 103.311 154.504H103.306ZM96 105.753V88.6897C96 87.3442 94.9161 86.2521 93.5806 86.2521C92.2452 86.2521 91.1613 87.3442 91.1613 88.6897V105.753H85.2677C84.3581 97.5479 82.8677 89.3966 80.8016 81.377H106.36C104.294 89.3966 102.803 97.5479 101.894 105.753H96ZM163.742 91.1273C163.66 91.1273 163.582 91.1273 163.5 91.1273C162.377 85.5696 157.49 81.3721 151.645 81.3721C147.377 81.3721 143.492 83.6634 141.329 87.2077C140.037 86.5788 138.61 86.2473 137.129 86.2473C131.792 86.2473 127.452 90.6203 127.452 95.9976C127.452 101.375 131.792 105.748 137.129 105.748H163.742C167.744 105.748 171 102.467 171 98.4351C171 94.4034 167.744 91.1224 163.742 91.1224V91.1273ZM163.742 100.878H137.129C134.463 100.878 132.29 98.6886 132.29 96.0024C132.29 93.3162 134.463 91.1273 137.129 91.1273C138.445 91.1273 139.679 91.6538 140.603 92.6142C141.203 93.2431 142.094 93.4917 142.931 93.2821C143.768 93.0676 144.431 92.4192 144.668 91.5807C145.544 88.4459 148.413 86.2521 151.645 86.2521C155.647 86.2521 158.903 89.5331 158.903 93.5649C158.903 93.7014 158.894 93.833 158.884 93.9695L158.874 94.0768C158.811 94.9787 159.252 95.8416 160.016 96.3193C160.781 96.7971 161.744 96.802 162.518 96.3437C162.895 96.1194 163.306 96.0024 163.742 96.0024C165.077 96.0024 166.161 97.0945 166.161 98.44C166.161 99.7856 165.077 100.878 163.742 100.878ZM57.2903 110.628C57.2081 110.628 57.1306 110.628 57.0484 110.628C55.9258 105.07 51.0387 100.873 45.1935 100.873C40.9258 100.873 37.0403 103.164 34.8774 106.708C33.5855 106.079 32.1581 105.748 30.6774 105.748C25.3403 105.748 21 110.121 21 115.498C21 120.875 25.3403 125.248 30.6774 125.248H57.2903C61.2919 125.248 64.5484 121.968 64.5484 117.936C64.5484 113.904 61.2919 110.623 57.2903 110.623V110.628ZM57.2903 120.378H30.6726C28.0065 120.378 25.8339 118.189 25.8339 115.503C25.8339 112.817 28.0065 110.628 30.6726 110.628C31.9887 110.628 33.2226 111.154 34.1468 112.115C34.7468 112.739 35.6371 112.992 36.4742 112.783C37.3113 112.568 37.9742 111.92 38.2113 111.081C39.0871 107.947 41.9565 105.753 45.1887 105.753C49.1903 105.753 52.4468 109.034 52.4468 113.065C52.4468 113.202 52.4371 113.334 52.4274 113.47L52.4177 113.577C52.3548 114.479 52.7952 115.342 53.5597 115.82C54.3242 116.298 55.2871 116.303 56.0613 115.844C56.4387 115.62 56.85 115.503 57.2855 115.503C58.621 115.503 59.7048 116.595 59.7048 117.941C59.7048 119.286 58.621 120.378 57.2855 120.378H57.2903Z" fill="white"/>
</svg>
